HIERARCHY
ROOT Hips
{
	OFFSET 0.000000 0.000000 0.000000
	CHANNELS 6 Xposition Yposition Zposition Xrotation Yrotation Zrotation
	JOINT LeftUpLeg_virtual
	{
		OFFSET 0.000000 0.000000 0.000000
		CHANNELS 3 Xrotation Yrotation Zrotation
		JOINT LeftUpLeg
		{
			OFFSET 10.205400 -3.823500 0.155100
			CHANNELS 3 Xrotation Yrotation Zrotation
			JOINT LeftLeg
			{
				OFFSET 0.708757 -12.982077 0.567790
				CHANNELS 3 Xrotation Yrotation Zrotation
				JOINT LeftFoot
				{
					OFFSET -0.708756 -10.717838 -2.184338
					CHANNELS 3 Xrotation Yrotation Zrotation
					JOINT LeftToeBase
					{
						OFFSET 0.108149 -7.191104 7.560241
						CHANNELS 3 Xrotation Yrotation Zrotation
						JOINT LeftToe_End
						{
							OFFSET 0.070230 0.081724 4.490308
							CHANNELS 3 Xrotation Yrotation Zrotation
							End Site
							{
								OFFSET 0 0 0
							}
						}
					}
				}
			}
		}
	}
	JOINT RightUpLeg_virtual
	{
		OFFSET 0.000000 0.000000 0.000000
		CHANNELS 3 Xrotation Yrotation Zrotation
		JOINT RightUpLeg
		{
			OFFSET -10.205400 -3.823500 0.005500
			CHANNELS 3 Xrotation Yrotation Zrotation
			JOINT RightLeg
			{
				OFFSET -0.708756 -12.982134 0.610632
				CHANNELS 3 Xrotation Yrotation Zrotation
				JOINT RightFoot
				{
					OFFSET 0.708754 -10.717769 -1.945823
					CHANNELS 3 Xrotation Yrotation Zrotation
					JOINT RightToeBase
					{
						OFFSET -0.108140 -7.191069 7.372968
						CHANNELS 3 Xrotation Yrotation Zrotation
						JOINT RightToe_End
						{
							OFFSET -0.070227 0.081735 4.479403
							CHANNELS 3 Xrotation Yrotation Zrotation
							End Site
							{
								OFFSET 0 0 0
							}
						}
					}
				}
			}
		}
	}
	JOINT Spine_virtual
	{
		OFFSET 0.000000 0.000000 0.000000
		CHANNELS 3 Xrotation Yrotation Zrotation
		JOINT Spine
		{
			OFFSET 0.000000 6.876099 0.125700
			CHANNELS 3 Xrotation Yrotation Zrotation
			JOINT Spine1
			{
				OFFSET 0.000000 5.730043 0.104720
				CHANNELS 3 Xrotation Yrotation Zrotation
				JOINT Spine1_split
				{
					OFFSET 0.000000 5.730043 0.104720
					CHANNELS 3 Xrotation Yrotation Zrotation
					JOINT Spine2
					{
						OFFSET 0.000000 5.730043 0.104720
						CHANNELS 3 Xrotation Yrotation Zrotation
						JOINT Neck_virtual
						{
							OFFSET 0.000000 0.000000 0.000000
							CHANNELS 3 Xrotation Yrotation Zrotation
							JOINT Neck
							{
								OFFSET 0.000000 10.314075 0.188496
								CHANNELS 3 Xrotation Yrotation Zrotation
								JOINT Head
								{
									OFFSET 0.000000 7.643700 -2.377400
									CHANNELS 3 Xrotation Yrotation Zrotation
									JOINT HeadTop_End
									{
										OFFSET 0.000000 43.788605 -13.619600
										CHANNELS 3 Xrotation Yrotation Zrotation
										End Site
										{
											OFFSET 0 0 0
										}
									}
								}
							}
						}
						JOINT LeftShoulder_virtual
						{
							OFFSET 0.000000 0.000000 0.000000
							CHANNELS 3 Xrotation Yrotation Zrotation
							JOINT LeftShoulder
							{
								OFFSET 2.196100 4.412489 0.087492
								CHANNELS 3 Xrotation Yrotation Zrotation
								JOINT LeftShoulder_split
								{
									OFFSET 2.196100 4.412489 0.087492
									CHANNELS 3 Xrotation Yrotation Zrotation
									JOINT LeftArm
									{
										OFFSET 8.771219 -2.981674 -0.026999
										CHANNELS 3 Xrotation Yrotation Zrotation
										JOINT LeftForeArm
										{
											OFFSET 8.512804 0.000000 -0.000000
											CHANNELS 3 Xrotation Yrotation Zrotation
											JOINT LeftHand
											{
												OFFSET 18.484802 0.000000 -0.000000
												CHANNELS 3 Xrotation Yrotation Zrotation
												End Site
												{
													OFFSET 0 0 0
												}
											}
										}
									}
								}
							}
						}
						JOINT RightShoulder_virtual
						{
							OFFSET 0.000000 0.000000 0.000000
							CHANNELS 3 Xrotation Yrotation Zrotation
							JOINT RightShoulder
							{
								OFFSET -2.196100 4.412496 0.070690
								CHANNELS 3 Xrotation Yrotation Zrotation
								JOINT RightShoulder_split
								{
									OFFSET -2.196100 4.412496 0.070690
									CHANNELS 3 Xrotation Yrotation Zrotation
									JOINT RightArm
									{
										OFFSET -8.771282 -2.981682 -0.094208
										CHANNELS 3 Xrotation Yrotation Zrotation
										JOINT RightForeArm
										{
											OFFSET -8.494598 0.000000 0.000000
											CHANNELS 3 Xrotation Yrotation Zrotation
											JOINT RightHand
											{
												OFFSET -18.483803 0.000000 0.000001
												CHANNELS 3 Xrotation Yrotation Zrotation
												End Site
												{
													OFFSET 0 0 0
												}
											}
										}
									}
								}
							}
						}
					}
				}
			}
		}
	}
}
MOTION
Frames: 9
Frame Time: 0.03333333
-0.140599 33.918461 -1.148808 0.000000 0.000000 0.000000 -5.114897 -3.712065 0.293411 -3.643460 4.815769 9.406457 23.203896 7.733105 -0.856170 -13.824028 5.396234 -8.983014 1.803888 0.005763 -0.502737 0.000000 0.000000 0.000000 -4.909566 -3.040604 0.252776 0.569835 -10.134326 -10.096034 22.502898 -6.926901 2.472539 -15.417830 -7.127725 7.269479 -1.777454 -0.005396 -0.106489 0.000000 0.000000 0.000000 -4.959796 -3.417663 -0.027293 4.562130 1.524164 -2.216717 1.244322 0.391879 0.161157 0.771606 -0.867421 0.073504 0.000000 0.000000 0.000000 0.607944 0.674874 0.075468 2.170433 -0.573337 -0.100531 18.795622 -10.559349 0.472885 0.000000 0.000000 0.000000 0.486685 0.544683 0.047537 2.575028 -4.044104 -11.762797 -1.241509 -0.666371 -1.904254 -3.185489 -8.298700 -58.429372 -1.236459 -11.278241 0.372984 0.000000 0.000000 0.000000 0.495053 0.413099 0.158439 2.730833 1.163269 15.541790 -1.299774 1.108494 -1.711216 -1.144258 9.093149 64.067502 -0.287051 14.734217 1.324291 0.000000 0.000000 0.000000 
-0.128182 33.928699 -1.256859 0.000000 0.000000 0.000000 -5.218514 -3.612776 0.315689 -3.800722 4.714988 9.392291 23.358251 7.633685 -0.832497 -13.646344 5.200631 -9.105578 1.721030 0.002967 -0.469006 0.000000 0.000000 0.000000 -5.029909 -2.869285 0.274158 0.709381 -10.162958 -10.031201 22.406891 -6.906739 2.347541 -15.500904 -7.207840 7.242814 -1.458377 -0.012360 -0.109685 0.000000 0.000000 0.000000 -5.058205 -3.147776 0.064883 4.584245 1.620650 -2.143258 1.262987 0.422484 0.136622 0.821595 -0.627048 0.152945 0.000000 0.000000 0.000000 0.558284 0.681855 0.074609 2.194757 -0.631960 -0.100967 18.769976 -10.645792 0.571132 0.000000 0.000000 0.000000 0.492390 0.567260 0.013471 2.521226 -3.927858 -11.862497 -1.377544 -0.235279 -2.128771 -2.385384 -7.656196 -58.300364 -1.223860 -10.688283 0.426560 0.000000 0.000000 0.000000 0.530067 0.457400 0.136483 2.721314 1.318470 15.527911 -1.379464 1.505624 -1.886995 -1.890094 9.379663 64.068752 -0.214429 15.375854 1.161389 0.000000 0.000000 0.000000 
-0.141095 33.918003 -1.388175 0.000000 0.000000 0.000000 -5.409012 -3.153833 0.433373 -4.182305 4.588717 9.262260 23.750198 7.472445 -0.812039 -13.583544 4.812244 -9.081665 1.623008 -0.008931 -0.416968 0.000000 0.000000 0.000000 -5.243143 -2.308705 0.381128 0.918669 -10.191671 -9.908196 22.623866 -6.924379 2.215043 -15.886474 -7.557652 7.098022 -1.287945 -0.028854 -0.135134 0.000000 0.000000 0.000000 -5.297882 -2.612793 0.199729 4.730449 1.777451 -2.034144 1.284608 0.471053 0.124882 0.869105 -0.553294 0.199987 0.000000 0.000000 0.000000 0.517299 0.711207 0.088644 2.163823 -0.727951 -0.089158 18.707810 -10.944218 0.762292 0.000000 0.000000 0.000000 0.516307 0.606397 -0.006727 2.467732 -3.869295 -11.978075 -1.568329 -0.079089 -2.146635 -1.353470 -6.530030 -58.334993 -1.088810 -9.726184 0.524017 0.000000 0.000000 0.000000 0.583681 0.522917 0.127542 2.694372 1.521758 15.579383 -1.272513 1.629932 -1.954588 -2.939919 10.212081 63.767445 -0.122637 16.416804 1.006228 0.000000 0.000000 0.000000 
-0.180547 33.895771 -1.518835 0.000000 0.000000 0.000000 -5.661884 -2.417716 0.613555 -4.702584 4.448569 9.054692 24.330049 7.267772 -0.777071 -13.664555 4.307672 -8.917720 1.543276 -0.026972 -0.367022 0.000000 0.000000 0.000000 -5.536334 -1.493123 0.556727 1.188150 -10.212367 -9.752236 23.083500 -6.973815 2.088305 -16.531645 -8.132751 6.817662 -1.241037 -0.056048 -0.165944 0.000000 0.000000 0.000000 -5.632098 -1.916563 0.359297 4.969172 1.981448 -1.918888 1.298669 0.531973 0.124751 0.904257 -0.549249 0.208931 0.000000 0.000000 0.000000 0.494441 0.759677 0.114031 2.079898 -0.847648 -0.072388 18.633152 -11.417575 1.021246 0.000000 0.000000 0.000000 0.560413 0.659192 -0.005295 2.435079 -3.864981 -12.076420 -1.678939 -0.232332 -2.010008 -0.251495 -5.147847 -58.496172 -0.871133 -8.658160 0.624952 0.000000 0.000000 0.000000 0.646009 0.599154 0.133924 2.654954 1.733896 15.717473 -1.076397 1.500150 -1.901353 -4.014984 11.302637 63.246432 -0.021267 17.674716 0.881375 0.000000 0.000000 0.000000 
-0.231664 33.864464 -1.655799 0.000000 0.000000 0.000000 -5.959246 -1.534284 0.820604 -5.270369 4.307672 8.840181 25.000009 7.035872 -0.720572 -13.858061 3.772857 -8.691639 1.504187 -0.046648 -0.333709 0.000000 0.000000 0.000000 -5.887317 -0.591518 0.767114 1.454487 -10.203809 -9.578960 23.685909 -7.041835 1.995056 -17.282045 -8.844270 6.401699 -1.194365 -0.088394 -0.189502 0.000000 0.000000 0.000000 -6.034160 -1.149231 0.535941 5.251340 2.222580 -1.822811 1.301415 0.602711 0.136943 0.916170 -0.530272 0.208179 0.000000 0.000000 0.000000 0.497095 0.824595 0.148659 1.980245 -0.984900 -0.056297 18.579175 -12.013014 1.321946 0.000000 0.000000 0.000000 0.617628 0.725122 0.014115 2.434109 -3.886432 -12.157704 -1.681426 -0.494723 -1.802223 0.850529 -3.659550 -58.757863 -0.632003 -7.644583 0.676159 0.000000 0.000000 0.000000 0.705188 0.677510 0.154262 2.619385 1.931494 15.925913 -0.831115 1.330438 -1.842550 -4.952334 12.353304 62.673433 0.062258 19.092226 0.815779 0.000000 0.000000 0.000000 
-0.286598 33.831081 -1.775169 0.000000 0.000000 0.000000 -6.270386 -0.647329 1.021318 -5.796105 4.186328 8.681315 25.657380 6.798142 -0.668787 -14.147579 3.291756 -8.468268 1.514064 -0.064009 -0.320921 0.000000 0.000000 0.000000 -6.258832 0.260030 0.977373 1.670818 -10.173184 -9.412744 24.333220 -7.097363 1.977687 -17.902013 -9.590692 5.955149 -1.099486 -0.115922 -0.199357 0.000000 0.000000 0.000000 -6.444305 -0.384031 0.717763 5.534622 2.485477 -1.761347 1.283905 0.679720 0.158327 0.955361 -0.521385 0.147252 0.000000 0.000000 0.000000 0.518105 0.904418 0.187480 1.908806 -1.125098 -0.048406 18.566037 -12.676902 1.650785 0.000000 0.000000 0.000000 0.676270 0.802880 0.051400 2.461985 -3.910777 -12.181679 -1.642917 -0.759117 -1.639438 1.921364 -2.224283 -59.039745 -0.433963 -6.787289 0.653741 0.000000 0.000000 0.000000 0.755840 0.754659 0.186320 2.597274 2.111810 16.157494 -0.582079 1.220943 -1.788299 -5.644103 13.166171 62.198066 0.115194 20.606319 0.818705 0.000000 0.000000 0.000000 
-0.340366 33.803802 -1.877614 0.000000 0.000000 0.000000 -6.577063 0.149513 1.187887 -6.250215 4.107782 8.613203 26.238298 6.576627 -0.653099 -14.489323 2.901323 -8.278894 1.545121 -0.075643 -0.317437 0.000000 0.000000 0.000000 -6.627847 1.005738 1.162490 1.831759 -10.113858 -9.256719 24.882726 -7.120344 2.013705 -18.208127 -10.318257 5.643923 -1.052821 -0.130155 -0.204763 0.000000 0.000000 0.000000 -6.843604 0.346109 0.890439 5.786290 2.755092 -1.733972 1.249861 0.765135 0.186081 0.992762 -0.516954 0.112773 0.000000 0.000000 0.000000 0.551140 0.993005 0.230907 1.892678 -1.257005 -0.048152 18.594498 -13.373881 2.005020 0.000000 0.000000 0.000000 0.728053 0.888194 0.098048 2.506363 -3.945209 -12.130214 -1.619359 -0.959858 -1.572726 3.030107 -0.887493 -59.275715 -0.309248 -6.135993 0.576061 0.000000 0.000000 0.000000 0.788821 0.829971 0.217954 2.579205 2.282401 16.355622 -0.360556 1.188746 -1.767150 -6.145208 13.652754 61.926730 0.143345 22.138764 0.850444 0.000000 0.000000 0.000000 
-0.391697 33.782875 -1.965566 0.000000 0.000000 0.000000 -6.869143 0.818939 1.311965 -6.594316 4.075907 8.657502 26.731516 6.367014 -0.694573 -14.862049 2.616890 -8.142513 1.569985 -0.076988 -0.316053 0.000000 0.000000 0.000000 -6.954743 1.626962 1.305737 1.960614 -10.004811 -9.117828 25.200997 -7.092419 2.049370 -18.181253 -10.978779 5.549003 -1.105547 -0.129402 -0.209677 0.000000 0.000000 0.000000 -7.207555 1.013448 1.038881 5.985990 3.018659 -1.733735 1.217576 0.857007 0.214467 0.985356 -0.520156 0.116232 0.000000 0.000000 0.000000 0.576587 1.083397 0.273642 1.940096 -1.373520 -0.060937 18.619809 -14.078680 2.381522 0.000000 0.000000 0.000000 0.768633 0.977363 0.141819 2.547153 -4.017024 -11.989297 -1.590230 -1.055570 -1.628564 4.177105 0.331756 -59.479733 -0.260959 -5.763135 0.476546 0.000000 0.000000 0.000000 0.804274 0.909073 0.243211 2.568737 2.452279 16.468168 -0.189337 1.214327 -1.740843 -6.481022 13.908161 61.853695 0.149822 23.617939 0.894790 0.000000 0.000000 0.000000 
-0.433990 33.772133 -2.050381 0.000000 0.000000 0.000000 -7.131050 1.381606 1.388590 -6.845162 4.058368 8.780651 27.169111 6.161728 -0.784762 -15.241528 2.447396 -8.055726 1.594781 -0.068121 -0.311981 0.000000 0.000000 0.000000 -7.215172 2.149884 1.391410 2.124532 -9.874324 -9.012596 25.271194 -7.035414 2.063597 -17.940448 -11.549508 5.634444 -1.181978 -0.112581 -0.206569 0.000000 0.000000 0.000000 -7.484547 1.606681 1.164998 6.140438 3.258886 -1.741342 1.190106 0.948013 0.235911 0.953705 -0.501294 0.134995 0.000000 0.000000 0.000000 0.575878 1.166110 0.309330 2.012160 -1.470208 -0.089875 18.568909 -14.762455 2.781945 0.000000 0.000000 0.000000 0.794680 1.063134 0.176128 2.567978 -4.146711 -11.774432 -1.538212 -1.053363 -1.771415 5.298037 1.405090 -59.689290 -0.241199 -5.718163 0.397655 0.000000 0.000000 0.000000 0.819979 0.992338 0.261365 2.564036 2.638845 16.475103 -0.145340 1.235361 -1.640280 -6.673425 14.080619 61.891069 0.158653 24.932289 0.936211 0.000000 0.000000 0.000000 
